<svg xmlns="http://www.w3.org/2000/svg" width="48" height="48"><circle cx="24.1" cy="24" r="23.5" fill="#fff" opacity=".9"/><path fill="#f5f6f7" d="M24 1c12.7 0 23 10.3 23 23S36.7 47 24 47 1 36.7 1 24 11.3 1 24 1m0-1C10.7 0 0 10.7 0 24s10.7 24 24 24 24-10.7 24-24S37.3 0 24 0z"/><path fill="#869099" d="M18.5 25.2l6.7 6.4c.3.3.7.5 1.2.5.4 0 .8-.2 1.2-.5.3-.3.5-.7.5-1.2 0-.4-.2-.9-.5-1.2L22.1 24l5.4-5.2c.3-.3.5-.7.5-1.2 0-.4-.2-.9-.5-1.2-.3-.3-.7-.5-1.2-.5s-.9.2-1.2.5l-6.7 6.4c-.2.3-.4.8-.4 1.2s.2.9.5 1.2"/></svg>
